<svg xmlns="http://www.w3.org/2000/svg" viewBox="0 15.670000076293945 50.540000915527344 50.893157958984375" data-asc="1.2958984375" width="50.540000915527344" height="50.893157958984375"><defs/><g fill="#ff414d"><g transform="translate(0, 0)"><path d="M50.54 46.68Q48.05 47.80 45.43 48.51Q42.82 49.22 40.19 49.85Q40.09 49.85 39.67 49.95Q39.26 50.05 38.82 50.17Q38.38 50.29 38.01 50.37Q37.65 50.44 37.65 50.44Q37.06 50.24 36.50 50.42Q35.94 50.59 35.38 50.83Q34.81 51.07 34.18 51.20Q33.54 51.32 32.76 50.98Q32.62 50.93 32.23 51.05Q31.84 51.17 31.45 51.37Q31.05 51.56 30.76 51.83Q30.47 52.10 30.42 52.29L30.71 52.59Q30.76 52.73 30.57 53.15Q30.37 53.56 30.13 54.03Q29.88 54.49 29.61 54.88Q29.35 55.27 29.20 55.37Q29.25 55.81 28.98 56.42Q28.71 57.03 28.39 57.71Q28.08 58.40 27.81 59.13Q27.54 59.86 27.54 60.50Q27.54 60.69 27.59 60.89Q27.64 61.08 27.59 61.23L27.54 61.33Q27.05 61.72 26.83 62.33Q26.61 62.94 26.49 63.60Q26.37 64.26 26.20 64.89Q26.03 65.53 25.63 66.02L25.63 66.06L25.59 66.11Q24.95 66.41 24.54 66.21Q24.12 66.02 23.80 65.63Q23.49 65.23 23.22 64.72Q22.95 64.21 22.61 63.82Q22.41 63.18 22.46 62.72Q22.51 62.26 22.90 61.77L23.00 61.72Q22.71 61.33 22.83 61.01Q22.95 60.69 23.12 60.40Q23.29 60.11 23.36 59.79Q23.44 59.47 23.05 59.03L23.14 58.94Q23.78 58.30 23.83 57.50Q23.88 56.69 23.75 55.86Q23.63 55.03 23.61 54.20Q23.58 53.37 24.07 52.69L24.12 52.64Q24.17 52.34 23.73 51.86Q23.29 51.37 23.05 51.12Q22.75 51.86 22.29 51.88Q21.83 51.90 21.26 51.76Q20.70 51.61 20.17 51.51Q19.63 51.42 19.19 51.86L18.95 52.05L18.85 51.86Q18.65 51.42 18.33 51.39Q18.02 51.37 17.63 51.42Q17.04 51.46 16.53 51.49Q16.02 51.51 15.48 51.51Q15.19 51.27 14.82 51.32Q14.45 51.37 14.09 51.42Q13.72 51.46 13.35 51.44Q12.99 51.42 12.65 51.03Q12.30 51.17 11.57 52.17Q10.84 53.17 10.03 54.39Q9.23 55.62 8.52 56.76Q7.81 57.91 7.57 58.35Q7.37 58.64 7.10 59.08Q6.84 59.52 6.54 59.99Q6.25 60.45 6.01 60.86Q5.76 61.28 5.62 61.57L5.66 61.72Q5.66 62.21 5.52 62.48Q5.37 62.74 5.15 62.92Q4.93 63.09 4.74 63.21Q4.54 63.33 4.39 63.48Q4.00 63.48 3.81 63.67Q3.61 63.87 3.47 64.11Q3.32 64.36 3.10 64.55Q2.88 64.75 2.39 64.75Q2.20 64.99 2.15 65.09Q2.10 65.19 2.00 65.48Q1.90 65.82 1.83 65.97Q1.76 66.11 1.68 66.19Q1.61 66.26 1.51 66.33Q1.42 66.41 1.32 66.55Q1.03 66.60 0.88 66.46Q0.73 66.31 0.59 66.09Q0.44 65.87 0.32 65.65Q0.20 65.43 0 65.33L0.05 65.19Q1.03 62.30 2.39 59.69Q3.76 57.08 5.32 54.49Q5.42 54.30 5.47 54.10Q5.52 53.91 5.62 53.71Q5.86 53.08 6.13 52.49Q6.40 51.90 6.79 51.37Q7.13 50.83 7.40 50.34Q7.67 49.85 7.91 49.32L7.81 49.22Q6.25 47.95 5.10 46.61Q3.96 45.26 2.93 43.55Q2.69 43.12 2.44 42.65Q2.20 42.19 1.95 41.80L1.90 41.75Q1.90 40.77 2.05 39.79Q2.20 38.82 2.93 38.09L2.98 38.04L2.98 37.99Q3.22 37.50 3.52 37.26Q3.81 37.01 4.13 36.87Q4.44 36.72 4.79 36.60Q5.13 36.47 5.47 36.18L5.47 36.13Q6.59 35.64 7.67 35.30Q8.74 34.96 9.96 35.60L10.06 35.55Q10.50 35.30 11.13 35.28Q11.77 35.25 12.26 35.25Q12.55 35.40 12.87 35.62Q13.18 35.84 13.50 36.04Q13.82 36.23 14.16 36.33Q14.50 36.43 14.79 36.28L14.84 36.28L14.84 36.23Q15.33 35.74 15.63 34.84Q15.92 33.94 16.24 32.91Q16.55 31.88 16.94 30.88Q17.33 29.88 18.02 29.15Q18.02 29.00 18.21 28.49Q18.41 27.98 18.63 27.32Q18.85 26.66 18.97 26.00Q19.09 25.34 18.95 24.90L19.38 24.95Q19.58 24.76 19.63 24.61L19.58 24.46Q19.38 24.27 19.43 23.97Q19.48 23.68 19.58 23.44L19.53 23.44L19.48 23.24Q19.63 23.19 20.04 23.05Q20.46 22.90 20.90 22.71Q21.34 22.51 21.70 22.36Q22.07 22.22 22.12 22.22Q22.80 22.61 22.88 23.10Q22.95 23.58 22.80 24.27Q22.75 24.61 22.78 24.83Q22.80 25.05 22.80 25.34Q22.80 25.83 22.56 26.54Q22.31 27.25 22.00 28.03Q21.68 28.81 21.29 29.49Q20.90 30.18 20.61 30.62L20.61 30.91Q20.61 31.93 20.31 33.03Q20.02 34.13 19.58 35.21Q19.14 36.28 18.63 37.30Q18.12 38.33 17.63 39.26Q17.29 39.84 16.89 40.60Q16.50 41.36 16.14 42.14Q15.77 42.92 15.50 43.73Q15.23 44.53 15.14 45.17L15.14 45.21L13.92 47.51Q14.11 47.75 14.53 47.92Q14.94 48.10 15.41 48.24Q15.87 48.39 16.33 48.46Q16.80 48.54 17.14 48.54Q17.68 48.54 18.04 48.61Q18.41 48.68 18.80 49.12L18.90 49.22L18.99 49.22Q19.38 49.12 19.68 49.12Q19.97 49.12 20.36 49.12Q20.75 49.22 21.12 49.17Q21.48 49.12 21.88 49.07L21.83 49.41Q22.07 49.66 22.22 49.76Q22.46 49.37 22.80 48.97Q23.00 49.27 23.14 49.41Q23.29 49.32 23.51 49.02Q23.73 48.73 23.83 48.73L23.88 48.68L23.93 48.73Q24.80 49.02 25.54 48.93Q26.27 48.83 27.15 48.83Q27.29 48.49 27.56 48.29Q27.83 48.10 28.05 47.88Q28.27 47.66 28.32 47.41Q28.37 47.17 28.08 46.73L28.03 46.63Q28.03 46.63 28.20 46.34Q28.37 46.04 28.56 45.68Q28.76 45.31 28.93 45.02Q29.10 44.73 29.15 44.63Q30.13 43.02 30.86 41.33Q31.59 39.65 31.59 37.74L31.59 37.40Q31.69 37.35 31.79 37.35Q32.52 37.06 32.57 36.55Q32.62 36.04 32.52 35.45Q32.42 34.86 32.54 34.28Q32.67 33.69 33.54 33.25L33.64 33.20L33.69 33.11Q33.98 32.37 34.20 31.62Q34.42 30.86 34.72 30.13Q35.64 27.93 36.08 25.39Q36.18 24.80 36.55 24.34Q36.91 23.88 37.30 23.41Q37.70 22.95 38.01 22.44Q38.33 21.92 38.33 21.29Q38.33 20.90 38.23 20.75L38.23 20.61L38.33 20.56Q39.31 20.07 39.84 19.34Q40.38 18.60 40.38 17.48Q40.38 17.33 40.36 16.94Q40.33 16.55 40.23 16.46Q40.67 16.16 41.16 15.67L41.26 15.72Q42.19 16.41 42.41 17.11Q42.63 17.82 42.50 18.55Q42.38 19.29 42.14 20.07Q41.89 20.85 41.89 21.68L41.85 21.73Q41.11 23.00 40.67 24.61Q40.23 26.22 40.23 27.73Q39.70 27.73 39.58 27.98Q39.45 28.22 39.38 28.59Q39.31 28.96 39.18 29.35Q39.06 29.74 38.57 30.03L38.67 30.18Q38.67 30.27 38.70 30.32Q38.72 30.37 38.72 30.47Q38.72 30.76 38.57 30.98Q38.43 31.20 38.28 31.42Q38.13 31.64 38.11 31.88Q38.09 32.13 38.33 32.42Q38.53 32.71 38.57 32.76L38.04 32.76Q37.26 34.28 36.62 35.84Q35.99 37.40 35.45 39.01Q35.01 40.38 34.52 41.70Q34.03 43.02 33.35 44.29L33.35 44.43Q33.79 45.26 33.42 45.75Q33.06 46.24 32.64 46.61Q32.23 46.97 32.08 47.31Q31.93 47.66 32.76 48.19Q33.40 47.56 33.94 47.75Q34.47 47.95 35.25 48.14Q35.40 48.00 35.52 47.88Q35.64 47.75 35.94 47.85Q35.99 47.90 36.04 47.92Q36.08 47.95 36.13 48.00Q36.43 47.56 36.67 47.51Q36.91 47.46 37.16 47.56Q37.40 47.66 37.65 47.75Q37.89 47.85 38.13 47.71Q38.28 47.61 38.33 47.39Q38.38 47.17 38.48 46.97Q39.21 47.71 39.72 47.68Q40.23 47.66 40.70 47.39Q41.16 47.12 41.63 46.88Q42.09 46.63 42.72 46.92Q43.26 46.92 43.82 46.80Q44.38 46.68 44.92 46.58Q46.34 46.34 47.71 46.19Q49.07 46.04 50.49 46.29L50.54 46.68M12.99 37.30Q12.55 37.30 12.18 37.35Q11.82 37.40 11.52 37.70Q11.47 37.65 11.43 37.65Q9.52 37.11 7.76 37.84Q6.01 38.57 4.74 39.94L4.64 40.33Q4.59 40.48 4.59 40.65Q4.59 40.82 4.59 40.92Q4.59 41.85 5.03 42.63Q5.32 43.21 5.74 43.60Q6.15 43.99 6.67 44.34Q7.18 44.68 7.69 45.02Q8.20 45.36 8.64 45.85Q9.62 45.85 9.99 45.34Q10.35 44.82 10.52 44.12Q10.69 43.41 10.89 42.68Q11.08 41.94 11.72 41.50Q11.77 41.50 11.77 41.48Q11.77 41.46 11.82 41.46Q11.62 40.97 11.84 40.48Q12.06 39.99 12.38 39.50Q12.70 39.01 12.92 38.48Q13.13 37.94 12.99 37.30Z"/></g></g></svg>