<?xml version="1.0" encoding="utf-8"?>
<!-- Generator: Adobe Illustrator 22.1.0, SVG Export Plug-In . SVG Version: 6.00 Build 0)  -->
<svg version="1.1" id="Layer_1" xmlns="http://www.w3.org/2000/svg" xmlns:xlink="http://www.w3.org/1999/xlink" x="0px" y="0px"
	 viewBox="0 0 612 792" style="enable-background:new 0 0 612 792;" xml:space="preserve">
<style type="text/css">
	.st0{fill:#FE414D;}
</style>
<g>
	<path d="M384,367.3c-3,2.4-6.9,3.8-11.1,3.8c-9.7,0-17.6-7.6-17.6-17.1c0-9.4,7.9-17.1,17.6-17.1c4.2,0,8,1.4,11.1,3.8l3.7-3.7
		c-4-3.3-9.2-5.3-14.8-5.3c-12.6,0-22.9,10-22.9,22.3c0,12.3,10.2,22.3,22.9,22.3c5.7,0,10.8-2,14.8-5.3L384,367.3z"/>
	<g>
		<path class="st0" d="M316.5,407.1c1.9,0,3.4-1.5,3.4-3.4c0-1.9-1.5-3.4-3.4-3.4c-1.9,0-3.4,1.5-3.4,3.4
			C313.1,405.5,314.6,407.1,316.5,407.1z"/>
		<rect x="313.8" y="413.4" class="st0" width="5.2" height="44.6"/>
	</g>
	<path d="M206.1,354c0-12.2-9.7-22.2-21.6-22.2c-6.4,0-12.2,2.8-16.3,7.6v-7.6H163v60.7h5.2v-23.9c4.1,4.9,10,7.7,16.3,7.7
		C196.4,376.3,206.1,366.3,206.1,354z M184.5,371.1c-8.8,0-16-7.2-16.3-16.4l0-0.7c0-9.3,7.3-16.9,16.3-16.9c9,0,16.3,7.6,16.3,16.9
		C200.8,363.4,193.5,371.1,184.5,371.1z"/>
	<path class="st0" d="M225.7,458c6.3,0,12.2-2.8,16.3-7.7v7.8h5.2v-44.6H242v7.6c-4.1-4.9-9.9-7.6-16.3-7.6
		c-11.9,0-21.6,10-21.6,22.2C204.1,447.9,213.8,458,225.7,458z M209.4,435.6c0-9.3,7.3-16.9,16.3-16.9c9,0,16.3,7.6,16.3,16.9l0,0.7
		c-0.4,9.2-7.5,16.4-16.3,16.4C216.7,452.7,209.4,445,209.4,435.6z"/>
	<path class="st0" d="M304.2,435.6c0-12.2-9.7-22.2-21.6-22.2c-6.4,0-12.2,2.8-16.3,7.6v-7.6h-5.2v60.7h5.2v-23.9
		c4.1,4.9,10,7.7,16.3,7.7C294.5,458,304.2,447.9,304.2,435.6z M282.6,452.7c-8.8,0-16-7.2-16.3-16.4l0-0.7
		c0-9.3,7.3-16.9,16.3-16.9s16.3,7.6,16.3,16.9C298.9,445,291.6,452.7,282.6,452.7z"/>
	<path d="M245.4,331.8v26.3c0,7.3-5.8,13-13.1,13.1c-7.3-0.1-12.9-5.8-12.9-13.1v-26.3h-5.2v26.3c0,10.1,8.1,18.3,18.1,18.3
		c10.1,0,18.3-8.2,18.3-18.3v-26.3H245.4z"/>
	<path d="M282.6,331.8c-6.3,0-12.2,2.8-16.3,7.7v-20.8h-5.2v57.7h5.2v-7.7c4.1,4.9,9.9,7.6,16.3,7.6c11.9,0,21.6-10,21.6-22.2
		C304.2,341.8,294.5,331.8,282.6,331.8z M298.9,354.1c0,9.3-7.3,16.9-16.3,16.9s-16.3-7.6-16.3-16.9l0-0.7
		c0.4-9.2,7.5-16.4,16.3-16.4C291.6,337,298.9,344.7,298.9,354.1z"/>
	<path d="M337,325.4c1.9,0,3.4-1.5,3.4-3.4c0-1.9-1.5-3.4-3.4-3.4c-1.9,0-3.4,1.5-3.4,3.4C333.7,323.9,335.2,325.4,337,325.4z"/>
	<rect x="334.4" y="331.8" width="5.2" height="44.6"/>
	<path d="M402.7,325.4c1.9,0,3.4-1.5,3.4-3.4c0-1.9-1.5-3.4-3.4-3.4c-1.9,0-3.4,1.5-3.4,3.4C399.3,323.9,400.8,325.4,402.7,325.4z"
		/>
	<rect x="400.1" y="331.8" width="5.2" height="44.6"/>
	<path class="st0" d="M402.3,413.4c-5,0-9.7,2-13.1,5.6v-5.6h-5.1V458h5.1v-26.4c0.2-7.2,6.1-13,13.1-13c7.2,0,13,5.8,13,13V458h5.2
		v-26.4C420.4,421.6,412.3,413.4,402.3,413.4z"/>
	<path class="st0" d="M447.6,452.9l-0.5,0.1c-0.5,0.1-1.3,0.3-2.5,0.3c-2.1,0-3-1.3-3-4.5v-30.4h6.2v-5.1h-6.2v-15h-5.4v15h-6.2v5.1
		h6.2v30.5c0,3.3,0.6,5.5,1.9,6.9c1.2,1.4,3,2.1,5.3,2.1c1.7,0,3.2-0.2,4.2-0.7l0.3-0.1L447.6,452.9z"/>
	<path class="st0" d="M365.6,445.2c-2.9,4.7-8.1,7.7-13.7,7.7c-8.7,0-15.8-6.9-16.5-15.9h35.4c1.4,0,2.6-1.1,2.6-2.4l0-0.4
		c-0.9-11.8-10.2-20.7-21.5-20.7c-11.9,0-21.6,10-21.6,22.4c0,12.2,9.7,22.2,21.6,22.2c7.3,0,14-3.7,18-10L365.6,445.2z
		 M351.9,418.6c7.7,0,14.3,5.6,15.9,13.3h-32C337.6,424.1,344.1,418.6,351.9,418.6z"/>
	<path class="st0" d="M192.1,436.5c0,0-1.4-1.1-2.8-1.7c-1.5-0.6-3.6-1.3-8-2.4c-0.6-0.1-1.2-0.3-1.7-0.4c-2.9-0.7-5.2-1.7-6.9-2.9
		c-1.6-1.4-2.2-2.6-2.2-4.1c0.1-1.7,1.1-3.3,2.8-4.5c2-1.5,4.9-2.2,8.1-2c3.7,0.2,6.5,2,9.5,4.2l0.3,0.2l3.8-3.5
		c-0.5-0.4-0.6-0.5-1.8-1.4c-3-2-6.7-4.2-11.6-4.4c-4.3-0.2-8.1,0.7-11.1,2.5c-3.2,2.2-5.2,5.3-5.3,8.7c0,2.5,0.5,4.8,3,7.2
		c3,2.9,7.6,4.4,11.9,5.2c3.6,0.7,7,2,8.7,3.5c2,1.9,2.7,3.2,2.7,5.1c-0.1,1.8-1.3,3.6-3.4,4.9c-2.1,1.5-5,2.4-8.1,2.2
		c-4.1-0.2-8.3-1.9-12.5-5.3l-0.3-0.2l-3.7,3.4l0.4,0.3c4.9,4.3,10.3,6.6,15.9,6.9c4.2,0.2,7.9-0.8,11.3-3.1
		c3.5-2.4,5.4-5.5,5.6-8.9C196.9,442.3,195.1,438.7,192.1,436.5z"/>
	<path d="M444.3,354.9c0,0-1.4-1.1-2.8-1.7c-1.5-0.6-3.6-1.3-8-2.4c-0.6-0.1-1.2-0.3-1.7-0.4c-2.9-0.7-5.2-1.7-6.9-2.9
		c-1.6-1.4-2.2-2.6-2.2-4.1c0.1-1.7,1.1-3.3,2.8-4.5c2-1.5,4.9-2.2,8.1-2c3.7,0.2,6.5,2,9.5,4.2l0.3,0.2l3.8-3.5
		c-0.5-0.4-0.6-0.5-1.8-1.4c-3-2-6.7-4.2-11.6-4.4c-4.3-0.2-8.1,0.7-11.1,2.5c-3.2,2.2-5.2,5.3-5.3,8.7c0,2.5,0.5,4.8,3,7.2
		c3,2.9,7.6,4.4,11.9,5.2c3.6,0.7,7,2,8.7,3.5c2,1.9,2.7,3.2,2.7,5.1c-0.1,1.8-1.3,3.6-3.4,4.9c-2.1,1.5-5,2.4-8.1,2.2
		c-4.1-0.2-8.3-1.9-12.5-5.3l-0.3-0.2l-3.7,3.4l0.4,0.3c4.9,4.3,10.3,6.6,15.9,6.9c4.2,0.2,7.9-0.8,11.3-3.1
		c3.5-2.4,5.4-5.5,5.6-8.9C449.2,360.7,447.4,357.1,444.3,354.9z"/>
	<rect x="313.8" y="318.7" width="5.2" height="57.7"/>
</g>
</svg>
