<?xml version="1.0" encoding="UTF-8"?>
<svg id="Layer_2" data-name="Layer 2" xmlns="http://www.w3.org/2000/svg" viewBox="0 0 286.05 155.39">
  <defs>
    <style>
      .cls-1 {
        fill: #231f20;
      }
    </style>
  </defs>
  <g id="Layer_1" data-name="Layer 1">
    <g>
      <path class="cls-1" d="M221.01,48.63c-3.03,2.38-6.88,3.81-11.07,3.81-9.71,0-17.61-7.65-17.61-17.05s7.9-17.05,17.61-17.05c4.19,0,8.04,1.43,11.07,3.81l3.74-3.74c-3.99-3.31-9.16-5.32-14.81-5.32-12.62,0-22.86,9.98-22.86,22.3s10.23,22.3,22.86,22.3c5.65,0,10.82-2,14.81-5.32l-3.74-3.74Z"/>
      <g>
        <path class="cls-1" d="M153.49,88.35c1.85,0,3.36-1.51,3.36-3.36s-1.51-3.36-3.36-3.36-3.36,1.51-3.36,3.36,1.51,3.36,3.36,3.36Z"/>
        <rect class="cls-1" x="150.87" y="94.72" width="5.24" height="44.6"/>
      </g>
      <path class="cls-1" d="M43.11,35.26c0-12.23-9.67-22.18-21.56-22.18-6.37,0-12.25,2.77-16.31,7.64v-7.64s-5.24,0-5.24,0v60.67s5.24,0,5.24,0v-23.85c4.1,4.93,9.98,7.72,16.31,7.72,11.89,0,21.56-10.03,21.56-22.36ZM21.56,52.37c-8.8,0-15.96-7.21-16.31-16.42v-.7c0-9.34,7.32-16.94,16.31-16.94,8.99,0,16.31,7.6,16.31,16.94,0,9.44-7.32,17.11-16.31,17.11Z"/>
      <path class="cls-1" d="M62.73,139.26c6.34,0,12.21-2.8,16.31-7.72v7.78s5.24,0,5.24,0v-44.59s-5.24,0-5.24,0v7.64c-4.06-4.87-9.94-7.64-16.31-7.64-11.89,0-21.56,9.95-21.56,22.18s9.67,22.36,21.56,22.36ZM46.41,116.9c0-9.34,7.32-16.94,16.31-16.94s16.31,7.6,16.31,16.94v.7c-.35,9.21-7.52,16.42-16.31,16.42s-16.31-7.68-16.31-17.11Z"/>
      <path class="cls-1" d="M141.19,116.9c0-12.23-9.67-22.18-21.56-22.18-6.37,0-12.25,2.77-16.31,7.64v-7.64s-5.24,0-5.24,0v60.67s5.24,0,5.24,0v-23.85c4.1,4.93,9.98,7.72,16.31,7.72,11.89,0,21.56-10.03,21.56-22.36ZM119.63,134.01c-8.8,0-15.96-7.21-16.31-16.42v-.7c0-9.34,7.32-16.94,16.31-16.94,8.99,0,16.31,7.6,16.31,16.94,0,9.44-7.32,17.11-16.31,17.11Z"/>
      <path class="cls-1" d="M82.4,13.09v26.34c0,7.26-5.76,13.02-13.1,13.11-7.25-.09-12.93-5.85-12.93-13.11V13.09h-5.16v26.34c0,10.07,8.11,18.26,18.08,18.26s18.35-8.19,18.35-18.26V13.09h-5.24Z"/>
      <path class="cls-1" d="M119.63,13.08c-6.34,0-12.21,2.8-16.31,7.72V0h-5.24v57.68h5.24v-7.7c4.06,4.87,9.94,7.64,16.31,7.64,11.89,0,21.56-9.95,21.56-22.18s-9.67-22.36-21.56-22.36ZM135.95,35.44c0,9.34-7.32,16.94-16.31,16.94s-16.31-7.6-16.31-16.94v-.7c.35-9.21,7.52-16.42,16.31-16.42s16.31,7.68,16.31,17.11Z"/>
      <path class="cls-1" d="M174.07,6.71c1.85,0,3.36-1.51,3.36-3.36s-1.51-3.36-3.36-3.36-3.36,1.51-3.36,3.36,1.51,3.36,3.36,3.36Z"/>
      <rect class="cls-1" x="171.45" y="13.09" width="5.24" height="44.6"/>
      <path class="cls-1" d="M239.72,6.71c1.85,0,3.36-1.51,3.36-3.36s-1.51-3.36-3.36-3.36-3.36,1.51-3.36,3.36,1.51,3.36,3.36,3.36Z"/>
      <rect class="cls-1" x="237.09" y="13.09" width="5.24" height="44.6"/>
      <path class="cls-1" d="M239.3,94.72c-4.98,0-9.69,2.03-13.1,5.62v-5.62h-5.07v44.6h5.07v-26.41c.17-7.18,6.05-13.03,13.1-13.03s13.02,5.84,13.02,13.02v26.43h5.15v-26.43c0-10.02-8.15-18.17-18.17-18.17Z"/>
      <path class="cls-1" d="M284.59,134.23l-.52.14c-.5.14-1.34.3-2.55.3-2.11,0-3.01-1.34-3.01-4.47v-30.36h6.19v-5.12h-6.19v-14.98h-5.37v14.98h-6.22v5.12h6.22v30.52c0,3.35.6,5.54,1.89,6.87,1.19,1.36,3.02,2.09,5.29,2.09,1.7,0,3.21-.24,4.24-.66l.29-.12-.26-4.3Z"/>
      <path class="cls-1" d="M202.62,126.48c-2.86,4.73-8.09,7.68-13.67,7.68-8.67,0-15.82-6.94-16.46-15.88h35.35c1.45,0,2.58-1.05,2.58-2.4v-.39c-.92-11.81-10.15-20.72-21.47-20.72-11.94,0-21.65,10.03-21.65,22.36s9.71,22.18,21.65,22.18c7.29,0,14-3.75,17.97-10.03l-4.3-2.8ZM188.95,99.93c7.69,0,14.28,5.56,15.86,13.29h-31.99c1.75-7.85,8.31-13.29,16.12-13.29Z"/>
      <path class="cls-1" d="M29.1,117.79s-1.36-1.06-2.83-1.68c-1.47-.62-3.58-1.33-7.95-2.4-.59-.15-1.17-.27-1.71-.41-2.92-.73-5.23-1.72-6.86-2.93-1.62-1.4-2.22-2.55-2.15-4.12.07-1.66,1.07-3.26,2.8-4.53,1.98-1.46,4.85-2.19,8.11-2.05,3.69.16,6.51,2.01,9.54,4.22l.29.21,3.82-3.55c-.46-.44-.55-.51-1.82-1.38-3-2.03-6.68-4.17-11.61-4.39-4.29-.19-8.12.69-11.08,2.55-3.21,2.17-5.24,5.34-5.28,8.68-.03,2.5.49,4.84,2.98,7.24,2.98,2.87,7.62,4.39,11.87,5.21,3.64.7,7.01,2.05,8.7,3.46,2.02,1.86,2.74,3.2,2.74,5.13-.08,1.85-1.29,3.61-3.35,4.86-2.07,1.55-5.03,2.36-8.11,2.22-4.06-.18-8.27-1.95-12.5-5.26l-.29-.23-3.74,3.43.37.32c4.93,4.26,10.29,6.57,15.93,6.89,4.23.18,7.92-.82,11.28-3.08,3.49-2.41,5.41-5.5,5.56-8.94.16-3.66-1.64-7.29-4.69-9.49Z"/>
      <path class="cls-1" d="M281.35,36.16s-1.36-1.06-2.83-1.68c-1.47-.62-3.58-1.33-7.95-2.4-.59-.15-1.17-.27-1.71-.41-2.92-.73-5.23-1.72-6.86-2.93-1.62-1.4-2.22-2.55-2.15-4.12.07-1.66,1.07-3.26,2.8-4.53,1.98-1.46,4.85-2.19,8.11-2.05,3.69.16,6.51,2.01,9.54,4.22l.29.21,3.82-3.55c-.46-.44-.55-.51-1.82-1.38-3-2.03-6.68-4.17-11.61-4.39-4.29-.19-8.12.69-11.08,2.55-3.21,2.17-5.24,5.34-5.28,8.68-.03,2.5.49,4.84,2.98,7.24,2.98,2.87,7.62,4.39,11.87,5.21,3.64.7,7.01,2.05,8.7,3.46,2.02,1.86,2.74,3.2,2.74,5.13-.08,1.85-1.29,3.61-3.35,4.86-2.07,1.55-5.03,2.36-8.11,2.22-4.06-.18-8.27-1.95-12.5-5.26l-.29-.23-3.74,3.43.37.32c4.93,4.26,10.29,6.57,15.93,6.89,4.23.18,7.92-.82,11.28-3.08,3.49-2.41,5.41-5.5,5.56-8.94.16-3.66-1.64-7.29-4.69-9.49Z"/>
      <rect class="cls-1" x="150.87" y="0" width="5.24" height="57.68"/>
    </g>
  </g>
</svg>